<svg xmlns="http://www.w3.org/2000/svg" width="900" height="520" viewBox="0 0 900 520">
  <style>
    text { font-family: Arial, sans-serif; fill: #17212b; }
    .title { font-size: 24px; font-weight: 700; }
    .axis { font-size: 15px; font-weight: 700; }
    .small { font-size: 12px; }
  </style>
  <rect width="100%" height="100%" fill="#ffffff" />
  <text x="88" y="30" class="title">NWDAF ABNORMAL_BEHAVIOUR Threshold Sweep</text>
  <line x1="88" y1="48" x2="88" y2="436" stroke="#17212b" stroke-width="2" />
  <line x1="88" y1="436" x2="852" y2="436" stroke="#17212b" stroke-width="2" />
  <line x1="661.0" y1="48" x2="661.0" y2="436" stroke="#c62828" stroke-dasharray="8 8" stroke-width="2" />
  <text x="669.0" y="66" class="small" fill="#c62828">rule threshold: &gt; 0.30</text>
  <line x1="88.0" y1="436" x2="88.0" y2="442" stroke="#444" /><text x="88.0" y="464" text-anchor="middle" class="small">0.00</text><line x1="279.0" y1="436" x2="279.0" y2="442" stroke="#444" /><text x="279.0" y="464" text-anchor="middle" class="small">0.10</text><line x1="470.0" y1="436" x2="470.0" y2="442" stroke="#444" /><text x="470.0" y="464" text-anchor="middle" class="small">0.20</text><line x1="661.0" y1="436" x2="661.0" y2="442" stroke="#444" /><text x="661.0" y="464" text-anchor="middle" class="small">0.30</text><line x1="852.0" y1="436" x2="852.0" y2="442" stroke="#444" /><text x="852.0" y="464" text-anchor="middle" class="small">0.40</text>
  <line x1="82" y1="436.0" x2="88" y2="436.0" stroke="#444" /><text x="76" y="441.0" text-anchor="end" class="small">0.0</text><line x1="82" y1="242.0" x2="88" y2="242.0" stroke="#444" /><text x="76" y="247.0" text-anchor="end" class="small">0.5</text><line x1="82" y1="48.0" x2="88" y2="48.0" stroke="#444" /><text x="76" y="53.0" text-anchor="end" class="small">1.0</text>
  <polyline points="183.5,436.0 279.0,436.0 470.0,436.0 641.9,436.0 661.0,436.0 680.1,48.0 852.0,48.0" fill="none" stroke="#263238" stroke-width="3" />
  <circle cx="183.5" cy="436.0" r="7" fill="#1565c0" /><circle cx="279.0" cy="436.0" r="7" fill="#1565c0" /><circle cx="470.0" cy="436.0" r="7" fill="#1565c0" /><circle cx="641.9" cy="436.0" r="7" fill="#1565c0" /><circle cx="661.0" cy="436.0" r="7" fill="#1565c0" /><circle cx="680.1" cy="48.0" r="7" fill="#c62828" /><circle cx="852.0" cy="48.0" r="7" fill="#c62828" />
  <text x="183.5" y="422.0" text-anchor="middle" class="small">0% n=3</text><text x="279.0" y="422.0" text-anchor="middle" class="small">0% n=3</text><text x="470.0" y="422.0" text-anchor="middle" class="small">0% n=3</text><text x="641.9" y="422.0" text-anchor="middle" class="small">0% n=3</text><text x="661.0" y="422.0" text-anchor="middle" class="small">0% n=3</text><text x="680.1" y="34.0" text-anchor="middle" class="small">100% n=3</text><text x="852.0" y="34.0" text-anchor="middle" class="small">100% n=3</text>
  <text x="470.0" y="496" text-anchor="middle" class="axis">Authentication failure ratio</text>
  <text x="24" y="242.0" text-anchor="middle" class="axis" transform="rotate(-90 24 242.0)">Detection rate</text>
</svg>
